<mxfile host="app.diagrams.net" modified="2023-10-24T03:25:51.069Z" agent="Mozilla/5.0 (Windows NT 10.0; Win64; x64) AppleWebKit/537.36 (KHTML, like Gecko) Chrome/115.0.0.0 Safari/537.36" version="22.0.6" etag="QXTw_SY0n7gg49HGL8v0" type="github">
  <diagram name="Trang-1" id="fIk8Y_vbpf4ExeJYGxmt">
    <mxGraphModel>
      <root>
        <mxCell id="0" />
        <mxCell id="1" parent="0" />
      </root>
    </mxGraphModel>
  </diagram>
</mxfile>
